<?xml version="1.0" encoding="UTF-8"?>
<svg width="700pt" height="700pt" version="1.1" viewBox="0 0 700 700" xmlns="http://www.w3.org/2000/svg" xmlns:xlink="http://www.w3.org/1999/xlink">
 <defs>
  <symbol id="v" overflow="visible">
   <path d="m18.766-1.125c-0.96875 0.5-1.9805 0.875-3.0312 1.125-1.043 0.25781-2.1367 0.39062-3.2812 0.39062-3.3984 0-6.0898-0.94531-8.0781-2.8438-1.9922-1.9062-2.9844-4.4844-2.9844-7.7344 0-3.2578 0.99219-5.8359 2.9844-7.7344 1.9883-1.9062 4.6797-2.8594 8.0781-2.8594 1.1445 0 2.2383 0.13281 3.2812 0.39062 1.0508 0.25 2.0625 0.625 3.0312 1.125v4.2188c-0.98047-0.65625-1.9453-1.1406-2.8906-1.4531-0.94922-0.3125-1.9492-0.46875-3-0.46875-1.875 0-3.3516 0.60547-4.4219 1.8125-1.0742 1.1992-1.6094 2.8555-1.6094 4.9688 0 2.1055 0.53516 3.7617 1.6094 4.9688 1.0703 1.1992 2.5469 1.7969 4.4219 1.7969 1.0508 0 2.0508-0.14844 3-0.45312 0.94531-0.3125 1.9102-0.80078 2.8906-1.4688z"/>
  </symbol>
  <symbol id="c" overflow="visible">
   <path d="m13.734-11.141c-0.4375-0.19531-0.87109-0.34375-1.2969-0.4375-0.41797-0.10156-0.83984-0.15625-1.2656-0.15625-1.2617 0-2.2305 0.40625-2.9062 1.2188-0.67969 0.80469-1.0156 1.9531-1.0156 3.4531v7.0625h-4.8906v-15.312h4.8906v2.5156c0.625-1 1.3438-1.7266 2.1562-2.1875 0.82031-0.46875 1.8008-0.70312 2.9375-0.70312 0.16406 0 0.34375 0.011719 0.53125 0.03125 0.19531 0.011719 0.47656 0.039062 0.84375 0.078125z"/>
  </symbol>
  <symbol id="b" overflow="visible">
   <path d="m17.641-7.7031v1.4062h-11.453c0.125 1.1484 0.53906 2.0078 1.25 2.5781 0.70703 0.57422 1.7031 0.85938 2.9844 0.85938 1.0312 0 2.082-0.14844 3.1562-0.45312 1.082-0.3125 2.1914-0.77344 3.3281-1.3906v3.7656c-1.1562 0.4375-2.3125 0.76562-3.4688 0.98438-1.1562 0.22656-2.3125 0.34375-3.4688 0.34375-2.7734 0-4.9297-0.70312-6.4688-2.1094-1.5312-1.4062-2.2969-3.3789-2.2969-5.9219 0-2.5 0.75391-4.4609 2.2656-5.8906 1.5078-1.4375 3.582-2.1562 6.2188-2.1562 2.4062 0 4.332 0.73047 5.7812 2.1875 1.4453 1.4492 2.1719 3.3828 2.1719 5.7969zm-5.0312-1.625c0-0.92578-0.27344-1.6719-0.8125-2.2344-0.54297-0.57031-1.25-0.85938-2.125-0.85938-0.94922 0-1.7188 0.26562-2.3125 0.79688s-0.96484 1.2969-1.1094 2.2969z"/>
  </symbol>
  <symbol id="e" overflow="visible">
   <path d="m9.2188-6.8906c-1.0234 0-1.793 0.17188-2.3125 0.51562-0.51172 0.34375-0.76562 0.85547-0.76562 1.5312 0 0.625 0.20703 1.1172 0.625 1.4688 0.41406 0.34375 0.98828 0.51562 1.7188 0.51562 0.92578 0 1.7031-0.32812 2.3281-0.98438 0.63281-0.66406 0.95312-1.4922 0.95312-2.4844v-0.5625zm7.4688-1.8438v8.7344h-4.9219v-2.2656c-0.65625 0.92969-1.3984 1.6055-2.2188 2.0312-0.82422 0.41406-1.8242 0.625-3 0.625-1.5859 0-2.8711-0.45703-3.8594-1.375-0.99219-0.92578-1.4844-2.1289-1.4844-3.6094 0-1.7891 0.61328-3.1016 1.8438-3.9375 1.2383-0.84375 3.1797-1.2656 5.8281-1.2656h2.8906v-0.39062c0-0.76953-0.30859-1.332-0.92188-1.6875-0.61719-0.36328-1.5703-0.54688-2.8594-0.54688-1.0547 0-2.0312 0.10547-2.9375 0.3125-0.89844 0.21094-1.7305 0.52344-2.5 0.9375v-3.7344c1.0391-0.25 2.0859-0.44141 3.1406-0.57812 1.0625-0.13281 2.125-0.20312 3.1875-0.20312 2.7578 0 4.75 0.54688 5.9688 1.6406 1.2266 1.0859 1.8438 2.8555 1.8438 5.3125z"/>
  </symbol>
  <symbol id="a" overflow="visible">
   <path d="m7.7031-19.656v4.3438h5.0469v3.5h-5.0469v6.5c0 0.71094 0.14062 1.1875 0.42188 1.4375s0.83594 0.375 1.6719 0.375h2.5156v3.5h-4.1875c-1.9375 0-3.3125-0.39844-4.125-1.2031-0.80469-0.8125-1.2031-2.1797-1.2031-4.1094v-6.5h-2.4219v-3.5h2.4219v-4.3438z"/>
  </symbol>
  <symbol id="k" overflow="visible">
   <path d="m12.766-13.078v-8.2031h4.9219v21.281h-4.9219v-2.2188c-0.66797 0.90625-1.4062 1.5703-2.2188 1.9844s-1.7578 0.625-2.8281 0.625c-1.8867 0-3.4336-0.75-4.6406-2.25-1.2109-1.5-1.8125-3.4258-1.8125-5.7812 0-2.3633 0.60156-4.2969 1.8125-5.7969 1.207-1.5 2.7539-2.25 4.6406-2.25 1.0625 0 2 0.21484 2.8125 0.64062 0.82031 0.42969 1.5664 1.0859 2.2344 1.9688zm-3.2188 9.9219c1.0391 0 1.8359-0.37891 2.3906-1.1406 0.55078-0.76953 0.82812-1.8828 0.82812-3.3438 0-1.457-0.27734-2.5664-0.82812-3.3281-0.55469-0.76953-1.3516-1.1562-2.3906-1.1562-1.043 0-1.8398 0.38672-2.3906 1.1562-0.55469 0.76172-0.82812 1.8711-0.82812 3.3281 0 1.4609 0.27344 2.5742 0.82812 3.3438 0.55078 0.76172 1.3477 1.1406 2.3906 1.1406z"/>
  </symbol>
  <symbol id="j" overflow="visible">
   <path d="m10.5-3.1562c1.0508 0 1.8516-0.37891 2.4062-1.1406 0.55078-0.76953 0.82812-1.8828 0.82812-3.3438 0-1.457-0.27734-2.5664-0.82812-3.3281-0.55469-0.76953-1.3555-1.1562-2.4062-1.1562-1.0547 0-1.8594 0.38672-2.4219 1.1562-0.55469 0.77344-0.82812 1.8828-0.82812 3.3281 0 1.4492 0.27344 2.5586 0.82812 3.3281 0.5625 0.77344 1.3672 1.1562 2.4219 1.1562zm-3.25-9.9219c0.67578-0.88281 1.4219-1.5391 2.2344-1.9688 0.82031-0.42578 1.7656-0.64062 2.8281-0.64062 1.8945 0 3.4453 0.75 4.6562 2.25 1.207 1.5 1.8125 3.4336 1.8125 5.7969 0 2.3555-0.60547 4.2812-1.8125 5.7812-1.2109 1.5-2.7617 2.25-4.6562 2.25-1.0625 0-2.0078-0.21094-2.8281-0.625-0.8125-0.42578-1.5586-1.0859-2.2344-1.9844v2.2188h-4.8906v-21.281h4.8906z"/>
  </symbol>
  <symbol id="i" overflow="visible">
   <path d="m0.34375-15.312h4.8906l4.125 10.391 3.5-10.391h4.8906l-6.4375 16.766c-0.64844 1.6953-1.4023 2.8828-2.2656 3.5625-0.86719 0.6875-2 1.0312-3.4062 1.0312h-2.8438v-3.2188h1.5312c0.83203 0 1.4375-0.13672 1.8125-0.40625 0.38281-0.26172 0.67969-0.73047 0.89062-1.4062l0.14062-0.42188z"/>
  </symbol>
  <symbol id="h" overflow="visible">
   <path d="m10.75-12.516c0.82031 0 1.4453-0.17969 1.875-0.54688 0.4375-0.36328 0.65625-0.89844 0.65625-1.6094 0-0.69531-0.21875-1.2266-0.65625-1.5938-0.42969-0.375-1.0547-0.5625-1.875-0.5625h-2.9219v4.3125zm0.17188 8.9375c1.0625 0 1.8594-0.22266 2.3906-0.67188 0.53125-0.44531 0.79688-1.125 0.79688-2.0312 0-0.88281-0.26562-1.5469-0.79688-1.9844-0.52344-0.4375-1.3203-0.65625-2.3906-0.65625h-3.0938v5.3438zm4.8906-7.3438c1.1328 0.32422 2.0078 0.92969 2.625 1.8125 0.625 0.88672 0.9375 1.9688 0.9375 3.25 0 1.9688-0.66797 3.4375-2 4.4062-1.3359 0.96875-3.3555 1.4531-6.0625 1.4531h-8.7344v-20.406h7.8906c2.832 0 4.8828 0.42969 6.1562 1.2812 1.2812 0.85547 1.9219 2.2266 1.9219 4.1094 0 1-0.23438 1.8516-0.70312 2.5469-0.46875 0.6875-1.1484 1.2031-2.0312 1.5469z"/>
  </symbol>
  <symbol id="u" overflow="visible">
   <path d="m2.3594-15.312h4.8906v15.312h-4.8906zm0-5.9688h4.8906v4h-4.8906z"/>
  </symbol>
  <symbol id="t" overflow="visible">
   <path d="m14.312-14.828v3.7188c-1.043-0.4375-2.0547-0.76562-3.0312-0.98438-0.98047-0.21875-1.9023-0.32812-2.7656-0.32812-0.92969 0-1.6211 0.11719-2.0781 0.34375-0.44922 0.23047-0.67188 0.58984-0.67188 1.0781 0 0.38672 0.17188 0.68359 0.51562 0.89062 0.34375 0.21094 0.95703 0.36719 1.8438 0.46875l0.85938 0.125c2.5078 0.32422 4.1953 0.85156 5.0625 1.5781 0.86328 0.73047 1.2969 1.8711 1.2969 3.4219 0 1.6367-0.60547 2.8672-1.8125 3.6875-1.1992 0.8125-2.9922 1.2188-5.375 1.2188-1.0234 0-2.0742-0.078125-3.1562-0.23438-1.0742-0.15625-2.1797-0.39453-3.3125-0.71875v-3.7188c0.96875 0.48047 1.9609 0.83984 2.9844 1.0781 1.0312 0.23047 2.0781 0.34375 3.1406 0.34375 0.95703 0 1.6758-0.12891 2.1562-0.39062 0.47656-0.26953 0.71875-0.66406 0.71875-1.1875 0-0.4375-0.16797-0.75781-0.5-0.96875-0.33594-0.21875-0.99609-0.38281-1.9844-0.5l-0.85938-0.10938c-2.1797-0.26953-3.7031-0.77344-4.5781-1.5156-0.875-0.73828-1.3125-1.8594-1.3125-3.3594 0-1.625 0.55078-2.8281 1.6562-3.6094 1.1133-0.78906 2.8203-1.1875 5.125-1.1875 0.89453 0 1.8359 0.074219 2.8281 0.21875 1 0.13672 2.082 0.35156 3.25 0.64062z"/>
  </symbol>
  <symbol id="s" overflow="visible">
   <path d="m2.5781-20.406h5.25v20.406h-5.25z"/>
  </symbol>
  <symbol id="g" overflow="visible">
   <path d="m14.719-14.828v3.9844c-0.65625-0.45703-1.3242-0.79688-2-1.0156-0.66797-0.21875-1.3594-0.32812-2.0781-0.32812-1.3672 0-2.4336 0.40234-3.2031 1.2031-0.76172 0.79297-1.1406 1.9062-1.1406 3.3438 0 1.4297 0.37891 2.543 1.1406 3.3438 0.76953 0.79297 1.8359 1.1875 3.2031 1.1875 0.75781 0 1.4844-0.10938 2.1719-0.32812 0.6875-0.22656 1.3203-0.56641 1.9062-1.0156v4c-0.76172 0.28125-1.5391 0.48828-2.3281 0.625-0.78125 0.14453-1.5742 0.21875-2.375 0.21875-2.7617 0-4.9219-0.70703-6.4844-2.125-1.5547-1.4141-2.3281-3.3828-2.3281-5.9062 0-2.5312 0.77344-4.5039 2.3281-5.9219 1.5625-1.4141 3.7227-2.125 6.4844-2.125 0.80078 0 1.5938 0.074219 2.375 0.21875 0.78125 0.13672 1.5547 0.35156 2.3281 0.64062z"/>
  </symbol>
  <symbol id="d" overflow="visible">
   <path d="m9.6406-12.188c-1.0859 0-1.9141 0.39062-2.4844 1.1719-0.57422 0.78125-0.85938 1.9062-0.85938 3.375s0.28516 2.5938 0.85938 3.375c0.57031 0.77344 1.3984 1.1562 2.4844 1.1562 1.0625 0 1.875-0.38281 2.4375-1.1562 0.57031-0.78125 0.85938-1.9062 0.85938-3.375s-0.28906-2.5938-0.85938-3.375c-0.5625-0.78125-1.375-1.1719-2.4375-1.1719zm0-3.5c2.6328 0 4.6914 0.71484 6.1719 2.1406 1.4766 1.418 2.2188 3.3867 2.2188 5.9062 0 2.5117-0.74219 4.4805-2.2188 5.9062-1.4805 1.418-3.5391 2.125-6.1719 2.125-2.6484 0-4.7148-0.70703-6.2031-2.125-1.4922-1.4258-2.2344-3.3945-2.2344-5.9062 0-2.5195 0.74219-4.4883 2.2344-5.9062 1.4883-1.4258 3.5547-2.1406 6.2031-2.1406z"/>
  </symbol>
  <symbol id="f" overflow="visible">
   <path d="m17.75-9.3281v9.3281h-4.9219v-7.1406c0-1.3203-0.03125-2.2344-0.09375-2.7344s-0.16797-0.86719-0.3125-1.1094c-0.1875-0.3125-0.44922-0.55469-0.78125-0.73438-0.32422-0.17578-0.69531-0.26562-1.1094-0.26562-1.0234 0-1.8242 0.39844-2.4062 1.1875-0.58594 0.78125-0.875 1.8711-0.875 3.2656v7.5312h-4.8906v-15.312h4.8906v2.2344c0.73828-0.88281 1.5195-1.5391 2.3438-1.9688 0.83203-0.42578 1.75-0.64062 2.75-0.64062 1.7695 0 3.1133 0.54688 4.0312 1.6406 0.91406 1.0859 1.375 2.6562 1.375 4.7188z"/>
  </symbol>
  <symbol id="r" overflow="visible">
   <path d="m12.422-21.281v3.2188h-2.7031c-0.6875 0-1.1719 0.125-1.4531 0.375-0.27344 0.25-0.40625 0.6875-0.40625 1.3125v1.0625h4.1875v3.5h-4.1875v11.812h-4.8906v-11.812h-2.4375v-3.5h2.4375v-1.0625c0-1.6641 0.46094-2.8984 1.3906-3.7031 0.92578-0.80078 2.3672-1.2031 4.3281-1.2031z"/>
  </symbol>
  <symbol id="q" overflow="visible">
   <path d="m16.547-12.766c0.61328-0.94531 1.3477-1.6719 2.2031-2.1719 0.85156-0.5 1.7891-0.75 2.8125-0.75 1.7578 0 3.0977 0.54688 4.0156 1.6406 0.92578 1.0859 1.3906 2.6562 1.3906 4.7188v9.3281h-4.9219v-7.9844-0.35938c0.007813-0.13281 0.015625-0.32031 0.015625-0.5625 0-1.082-0.16406-1.8633-0.48438-2.3438-0.3125-0.48828-0.82422-0.73438-1.5312-0.73438-0.92969 0-1.6484 0.38672-2.1562 1.1562-0.51172 0.76172-0.77344 1.8672-0.78125 3.3125v7.5156h-4.9219v-7.9844c0-1.6953-0.14844-2.7852-0.4375-3.2656-0.29297-0.48828-0.8125-0.73438-1.5625-0.73438-0.9375 0-1.6641 0.38672-2.1719 1.1562-0.51172 0.76172-0.76562 1.8594-0.76562 3.2969v7.5312h-4.9219v-15.312h4.9219v2.2344c0.60156-0.86328 1.2891-1.5156 2.0625-1.9531 0.78125-0.4375 1.6406-0.65625 2.5781-0.65625 1.0625 0 2 0.25781 2.8125 0.76562 0.8125 0.51172 1.4258 1.2305 1.8438 2.1562z"/>
  </symbol>
  <symbol id="p" overflow="visible">
   <path d="m17.75-9.3281v9.3281h-4.9219v-7.1094c0-1.3438-0.03125-2.2656-0.09375-2.7656s-0.16797-0.86719-0.3125-1.1094c-0.1875-0.3125-0.44922-0.55469-0.78125-0.73438-0.32422-0.17578-0.69531-0.26562-1.1094-0.26562-1.0234 0-1.8242 0.39844-2.4062 1.1875-0.58594 0.78125-0.875 1.8711-0.875 3.2656v7.5312h-4.8906v-21.281h4.8906v8.2031c0.73828-0.88281 1.5195-1.5391 2.3438-1.9688 0.83203-0.42578 1.75-0.64062 2.75-0.64062 1.7695 0 3.1133 0.54688 4.0312 1.6406 0.91406 1.0859 1.375 2.6562 1.375 4.7188z"/>
  </symbol>
  <symbol id="o" overflow="visible">
   <path d="m2.5781-20.406h5.875l7.4219 14v-14h4.9844v20.406h-5.875l-7.4219-14v14h-4.9844z"/>
  </symbol>
  <symbol id="n" overflow="visible">
   <path d="m2.1875-5.9688v-9.3438h4.9219v1.5312c0 0.83594-0.007813 1.875-0.015625 3.125-0.011719 1.25-0.015625 2.0859-0.015625 2.5 0 1.2422 0.03125 2.1328 0.09375 2.6719 0.070313 0.54297 0.17969 0.93359 0.32812 1.1719 0.20703 0.32422 0.47266 0.57422 0.79688 0.75 0.32031 0.16797 0.69141 0.25 1.1094 0.25 1.0195 0 1.8203-0.39062 2.4062-1.1719 0.58203-0.78125 0.875-1.8672 0.875-3.2656v-7.5625h4.8906v15.312h-4.8906v-2.2188c-0.74219 0.89844-1.5234 1.5586-2.3438 1.9844-0.82422 0.41406-1.7344 0.625-2.7344 0.625-1.7617 0-3.1055-0.53906-4.0312-1.625-0.92969-1.082-1.3906-2.6602-1.3906-4.7344z"/>
  </symbol>
  <symbol id="m" overflow="visible">
   <path d="m2.5781-20.406h8.7344c2.5938 0 4.582 0.57812 5.9688 1.7344 1.3945 1.1484 2.0938 2.7891 2.0938 4.9219 0 2.1367-0.69922 3.7812-2.0938 4.9375-1.3867 1.1562-3.375 1.7344-5.9688 1.7344h-3.4844v7.0781h-5.25zm5.25 3.8125v5.7031h2.9219c1.0195 0 1.8047-0.25 2.3594-0.75 0.5625-0.5 0.84375-1.2031 0.84375-2.1094 0-0.91406-0.28125-1.6172-0.84375-2.1094-0.55469-0.48828-1.3398-0.73438-2.3594-0.73438z"/>
  </symbol>
  <symbol id="l" overflow="visible">
   <path d="m2.3594-15.312h4.8906v15.031c0 2.0508-0.49609 3.6172-1.4844 4.7031-0.98047 1.082-2.4062 1.625-4.2812 1.625h-2.4219v-3.2188h0.85938c0.92578 0 1.5625-0.21094 1.9062-0.625 0.35156-0.41797 0.53125-1.2461 0.53125-2.4844zm0-5.9688h4.8906v4h-4.8906z"/>
  </symbol>
 </defs>
 <g>
  <path d="m595 479.64c-1.2852-3.2969-3.5312-6.125-6.4492-8.125-2.9141-1.9961-6.3672-3.0703-9.9023-3.0742h-25.426c1.5898-3.9922 1.5898-8.4414 0-12.434l-14.727-39.199c-1.2734-3.2891-3.5117-6.1211-6.418-8.1172-2.9062-2-6.3516-3.0742-9.8789-3.082h-25.367c1.5156-4.0078 1.5156-8.4258 0-12.434l-14.727-39.199c-1.2852-3.2969-3.5312-6.125-6.4492-8.125-2.918-1.9961-6.3672-3.0703-9.9023-3.0742h-41.051v-41.832l4.4258 3.5273c4.043 3.1602 9.1641 4.6055 14.266 4.0312 5.0977-0.57812 9.7695-3.1289 13.004-7.1133 3.2305-4.0586 4.7188-9.2305 4.1406-14.383-0.57812-5.1523-3.1719-9.8672-7.2188-13.113l-48.215-38.695v-81.648h9.1836c1.4844 0 2.9102-0.58984 3.957-1.6406 1.0508-1.0469 1.6406-2.4727 1.6406-3.957v-28.672c0-1.4883-0.58984-2.9102-1.6406-3.9609-1.0469-1.0508-2.4727-1.6406-3.957-1.6406h-75.488c-3.0938 0-5.6016 2.5078-5.6016 5.6016v28.672c0 1.4844 0.58984 2.9102 1.6406 3.957 1.0508 1.0508 2.4766 1.6406 3.9609 1.6406h9.1836v36.23l-69.496-55.383c-2.0234-1.5781-4.8633-1.5781-6.8867 0l-175.11 139.5c-4.0469 3.2461-6.6445 7.9609-7.2188 13.113-0.57812 5.1523 0.91016 10.324 4.1367 14.383 3.2188 4.0781 7.9414 6.6797 13.105 7.2266 0.74609 0.054687 1.4961 0.054687 2.2422 0 4.4141 0.007812 8.7031-1.4961 12.148-4.2578l4.4258-3.5273v203.17c-8.1797 0.72266-15.801 4.4688-21.371 10.504-5.5703 6.0352-8.6914 13.93-8.7578 22.145 0 1.4844 0.58984 2.9102 1.6406 3.9609 1.0508 1.0469 2.4766 1.6367 3.9609 1.6367h379.79c4.3984 0.003906 8.6406-1.6562 11.871-4.6445 3.207 2.9883 7.4297 4.6484 11.816 4.6445h89.094c5.7344 0.023437 11.105-2.7773 14.375-7.4883 3.2656-4.7109 4.0039-10.727 1.9766-16.086zm-72.801-62.777c2.5039 0.10547 4.707 1.6914 5.6016 4.0312l14.727 39.199v0.003906c0.71484 1.8633 0.46094 3.957-0.67188 5.5977-1.1719 1.6875-3.0977 2.6914-5.1523 2.6875h-88.816c-2.0508 0.003907-3.9766-1-5.1523-2.6875-0.71094-1.0586-1.0977-2.3047-1.1172-3.582-0.007813-0.74609 0.125-1.4883 0.39062-2.1836l14.785-39.199v-0.003907c0.89062-2.3398 3.0938-3.9258 5.5977-4.0312h59.867zm-29.734 89.992-10.305-27.215h20.551zm-102.59-27.215-9.0156 23.969h-2.5195l-9.0156-23.969zm-36.902-11.199h-17.922c-2.0039-0.089844-3.8438-1.1328-4.9492-2.8047-1.1094-1.6719-1.3516-3.7734-0.64844-5.6523l14.785-39.199h-0.003906c0.89453-2.3438 3.0977-3.9297 5.6016-4.0312h59.582c1.5117-0.003906 2.9688 0.55469 4.0898 1.5664 0.79297 0.64844 1.3945 1.5 1.7344 2.4648l9.4648 24.977 5.6016 14.055c0.26562 0.69531 0.39844 1.4375 0.39062 2.1836-0.019531 1.2773-0.40625 2.5234-1.1211 3.5859-1.0508 1.5273-2.7383 2.4961-4.5898 2.6289h-72.016zm-84.953 35.168h-30.016v-123.59c0-13.164 7.0234-25.328 18.426-31.91 11.398-6.582 25.445-6.582 36.848 0 11.398 6.582 18.422 18.746 18.422 31.91v88.367h-18.48c-3.5352 0.007813-6.9844 1.0781-9.9023 3.0781-2.918 1.9961-5.1641 4.8281-6.4492 8.125zm168-59.473-10.305-27.16h20.609zm29.793-89.938c2.4961 0.13281 4.6836 1.707 5.5977 4.0312l14.727 39.199 0.003907 0.003906c0.69922 1.8789 0.45703 3.9805-0.64844 5.6523-1.1094 1.6719-2.9492 2.7148-4.9531 2.8008h-89.094c-2.0156-0.0625-3.875-1.0977-4.9883-2.7812-1.1094-1.6797-1.3398-3.793-0.61328-5.6719l14.559-39.035c0.89453-2.3398 3.0977-3.9258 5.6016-4.0312h59.809zm-121.41-229.32h64.289v17.473h-64.289zm14.785 28.672h34.609v72.801l-34.609-27.609zm-245.28 142.18c-1.7266 1.3984-3.9531 2.0273-6.1602 1.7383-2.2031-0.23828-4.2188-1.3477-5.5977-3.082-2.832-3.6523-2.1836-8.9062 1.457-11.758l171.41-137.03 74.984 60.031 45.809 36.625 0.83984 0.55859 49.672 39.648c2.7969 2.2031 3.8867 5.9414 2.7109 9.3047s-4.3555 5.6094-7.918 5.5898c-1.8906 0.023437-3.7344-0.60938-5.2109-1.793l-12.824-9.9648-0.83984-0.67187-143.75-114.91c-2.0352-1.6094-4.9102-1.6094-6.9453 0zm161.11-114.18 138.49 110.43v51.016h-7.5039c-3.5352 0.007812-6.9883 1.0781-9.9062 3.0781-2.9141 1.9961-5.1602 4.8281-6.4453 8.1211l-14.727 39.199c-1.5156 4.0078-1.5156 8.4297 0 12.434h-24.922c-3.5312 0.003907-6.9766 1.0742-9.8867 3.0742-2.9062 1.9961-5.1406 4.832-6.4102 8.125l-10.414 27.441v-64.457c0-17.164-9.1602-33.027-24.023-41.609-14.867-8.5859-33.184-8.5859-48.051 0-14.863 8.582-24.023 24.445-24.023 41.609v123.59h-90.664v-211.62zm-168 349.5c1.2461-4.6602 3.9961-8.7773 7.8242-11.715s8.5195-4.5273 13.344-4.5234h135.52l-1.3984 3.7539v-0.003906c-1.5117 3.9883-1.5117 8.3906 0 12.379zm171.47 0c-2.0156-0.0625-3.8711-1.0977-4.9844-2.7812-1.1133-1.6797-1.3438-3.793-0.61719-5.6719l2.8008-7.3945 4.1445-11.199 7.5586-19.992c0.89453-2.3438 3.0977-3.9258 5.6016-4.0312h59.977c2.5039 0.10547 4.707 1.6875 5.5977 4.0312l7.5586 19.992 4.1445 11.199 2.9102 7.6719h0.003906c0.69922 1.8789 0.46094 3.9805-0.64844 5.6523-1.1055 1.6758-2.9453 2.7148-4.9492 2.8047zm207.2-2.6875c-1.1367 1.6992-3.0508 2.7109-5.0938 2.6875h-89.152c-2.0156-0.0625-3.875-1.0977-4.9883-2.7812-1.1094-1.6797-1.3398-3.793-0.61328-5.6719l2.6875-7.3945 4.1445-11.199 7.7266-20.383c0.89453-2.3438 3.0977-3.9297 5.6016-4.0312h59.809c2.4961 0.12891 4.6836 1.707 5.5977 4.0312l14.727 39.199h0.003907c0.75781 1.8125 0.59375 3.8789-0.44922 5.543zm112.84 0c-1.1445 1.7188-3.0859 2.7305-5.1523 2.6875h-89.094c-2.0625 0.03125-4-0.97656-5.1523-2.6875-1.1094-1.6523-1.3555-3.7344-0.67188-5.5977l14.727-39.199v-0.003906c0.89453-2.3398 3.0938-3.9258 5.6016-4.0312h59.863c2.4961 0.13281 4.6836 1.707 5.5977 4.0312l14.727 39.199 0.003906 0.003907c0.75 1.8281 0.58203 3.9102-0.44922 5.5977z"/>
  <path d="m499.3 291.93c0.95312 1.8438 2.8516 3.0039 4.9258 3.0234h21.281v104.38c0 1.4844 0.58984 2.9102 1.6406 3.9609s2.4727 1.6406 3.9609 1.6406h47.32c1.4844 0 2.9062-0.58984 3.957-1.6406 1.0508-1.0508 1.6406-2.4766 1.6406-3.9609v-104.38h21.223c2.1016 0.011719 4.0352-1.1562 5.0039-3.0195 0.96484-1.8672 0.80859-4.1172-0.41016-5.8281l-50.398-72.016c-1.0508-1.5039-2.7617-2.3984-4.5938-2.3984-1.8281 0-3.543 0.89453-4.5898 2.3984l-50.398 72.016h-0.003906c-1.2656 1.6797-1.4805 3.9297-0.55859 5.8242zm55.441-64.902 39.762 56.727h-16.074c-3.0938 0-5.6016 2.5039-5.6016 5.5977v104.38h-36.121v-104.38c0-1.4844-0.58984-2.9102-1.6406-3.9609-1.0508-1.0469-2.4727-1.6367-3.957-1.6367h-16.074z"/>
  <path d="m425.82 100.8h21.281v104.55c0 1.4844 0.58984 2.9102 1.6406 3.9609 1.0469 1.0508 2.4727 1.6406 3.957 1.6406h47.32c1.4844 0 2.9102-0.58984 3.9609-1.6406s1.6406-2.4766 1.6406-3.9609v-104.55h21.223c2.082-0.003906 3.9922-1.1641 4.9531-3.0078 0.96484-1.8477 0.82422-4.0742-0.35938-5.7852l-50.398-72.07h-0.003907c-1.0547-1.4844-2.7695-2.3633-4.5898-2.3516-1.8242-0.011719-3.5352 0.86719-4.5938 2.3516l-50.398 72.07c-1.1055 1.6719-1.2344 3.8086-0.33594 5.6016 0.87109 1.8398 2.6719 3.0625 4.7031 3.1914zm50.398-67.871 39.875 56.672h-16.074c-3.0938 0-5.5977 2.5039-5.5977 5.5977v104.55h-36.121v-104.55c0-1.4844-0.58984-2.9102-1.6406-3.9609-1.0508-1.0469-2.4766-1.6367-3.9609-1.6367h-16.129z"/>
  <use x="70" y="644" xlink:href="#v"/>
  <use x="90.550781" y="644" xlink:href="#c"/>
  <use x="104.359375" y="644" xlink:href="#b"/>
  <use x="123.347656" y="644" xlink:href="#e"/>
  <use x="142.242188" y="644" xlink:href="#a"/>
  <use x="155.628906" y="644" xlink:href="#b"/>
  <use x="174.617188" y="644" xlink:href="#k"/>
  <use x="204.410156" y="644" xlink:href="#j"/>
  <use x="224.453125" y="644" xlink:href="#i"/>
  <use x="252.453125" y="644" xlink:href="#h"/>
  <use x="273.792969" y="644" xlink:href="#e"/>
  <use x="292.6875" y="644" xlink:href="#c"/>
  <use x="306.496094" y="644" xlink:href="#u"/>
  <use x="316.09375" y="644" xlink:href="#t"/>
  <use x="332.757812" y="644" xlink:href="#a"/>
  <use x="346.144531" y="644" xlink:href="#e"/>
  <use x="365.039062" y="644" xlink:href="#s"/>
  <use x="375.457031" y="644" xlink:href="#g"/>
  <use x="392.054688" y="644" xlink:href="#d"/>
  <use x="411.289062" y="644" xlink:href="#f"/>
  <use x="70" y="672" xlink:href="#r"/>
  <use x="82.183594" y="672" xlink:href="#c"/>
  <use x="95.992188" y="672" xlink:href="#d"/>
  <use x="115.226562" y="672" xlink:href="#q"/>
  <use x="154.152344" y="672" xlink:href="#a"/>
  <use x="167.535156" y="672" xlink:href="#p"/>
  <use x="187.46875" y="672" xlink:href="#b"/>
  <use x="216.207031" y="672" xlink:href="#o"/>
  <use x="239.640625" y="672" xlink:href="#d"/>
  <use x="258.878906" y="672" xlink:href="#n"/>
  <use x="278.8125" y="672" xlink:href="#f"/>
  <use x="308.492188" y="672" xlink:href="#m"/>
  <use x="329.015625" y="672" xlink:href="#c"/>
  <use x="342.820312" y="672" xlink:href="#d"/>
  <use x="362.058594" y="672" xlink:href="#l"/>
  <use x="371.65625" y="672" xlink:href="#b"/>
  <use x="390.648438" y="672" xlink:href="#g"/>
  <use x="407.242188" y="672" xlink:href="#a"/>
 </g>
</svg>
